<svg width="59" height="51" viewBox="0 0 59 51" fill="none" xmlns="http://www.w3.org/2000/svg">
<ellipse cx="29.5" cy="35" rx="29.5" ry="16" fill="#FFC72C"/>
<path d="M37.6 5.22499C37.6 4.84705 37.7501 4.4846 38.0174 4.21736C38.2846 3.95012 38.6471 3.79999 39.025 3.79999H43.775C44.1529 3.79999 44.5154 3.95012 44.7826 4.21736C45.0499 4.4846 45.2 4.84705 45.2 5.22499V9.97499C45.2 10.3529 45.0499 10.7154 44.7826 10.9826C44.5154 11.2499 44.1529 11.4 43.775 11.4C43.3971 11.4 43.0346 11.2499 42.7674 10.9826C42.5001 10.7154 42.35 10.3529 42.35 9.97499V8.66399L33.857 17.157C33.5898 17.4238 33.2276 17.5737 32.85 17.5737C32.4724 17.5737 32.1102 17.4238 31.843 17.157L27.15 12.464L19.132 20.482C19.0015 20.622 18.8442 20.7343 18.6694 20.8122C18.4946 20.8901 18.3059 20.9319 18.1146 20.9353C17.9233 20.9387 17.7332 20.9035 17.5558 20.8318C17.3783 20.7602 17.2171 20.6535 17.0818 20.5182C16.9465 20.3828 16.8398 20.2217 16.7682 20.0442C16.6965 19.8668 16.6613 19.6767 16.6647 19.4854C16.6681 19.2941 16.7099 19.1054 16.7878 18.9306C16.8657 18.7558 16.978 18.5984 17.118 18.468L26.143 9.44299C26.4102 9.17613 26.7724 9.02624 27.15 9.02624C27.5276 9.02624 27.8898 9.17613 28.157 9.44299L32.85 14.136L40.336 6.64999H39.025C38.6471 6.64999 38.2846 6.49985 38.0174 6.23261C37.7501 5.96538 37.6 5.60292 37.6 5.22499ZM18.125 26.6C18.5029 26.6 18.8654 26.7501 19.1326 27.0174C19.3999 27.2846 19.55 27.6471 19.55 28.025V32.775C19.55 33.1529 19.3999 33.5154 19.1326 33.7826C18.8654 34.0499 18.5029 34.2 18.125 34.2C17.7471 34.2 17.3846 34.0499 17.1174 33.7826C16.8501 33.5154 16.7 33.1529 16.7 32.775V28.025C16.7 27.6471 16.8501 27.2846 17.1174 27.0174C17.3846 26.7501 17.7471 26.6 18.125 26.6ZM27.15 22.325C27.15 21.9471 26.9999 21.5846 26.7326 21.3174C26.4654 21.0501 26.1029 20.9 25.725 20.9C25.3471 20.9 24.9846 21.0501 24.7174 21.3174C24.4501 21.5846 24.3 21.9471 24.3 22.325V32.775C24.3 33.1529 24.4501 33.5154 24.7174 33.7826C24.9846 34.0499 25.3471 34.2 25.725 34.2C26.1029 34.2 26.4654 34.0499 26.7326 33.7826C26.9999 33.5154 27.15 33.1529 27.15 32.775V22.325ZM33.325 24.7C33.7029 24.7 34.0654 24.8501 34.3326 25.1174C34.5999 25.3846 34.75 25.7471 34.75 26.125V32.775C34.75 33.1529 34.5999 33.5154 34.3326 33.7826C34.0654 34.0499 33.7029 34.2 33.325 34.2C32.9471 34.2 32.5846 34.0499 32.3174 33.7826C32.0501 33.5154 31.9 33.1529 31.9 32.775V26.125C31.9 25.7471 32.0501 25.3846 32.3174 25.1174C32.5846 24.8501 32.9471 24.7 33.325 24.7ZM42.35 18.525C42.35 18.1471 42.1999 17.7846 41.9326 17.5174C41.6654 17.2501 41.3029 17.1 40.925 17.1C40.5471 17.1 40.1846 17.2501 39.9174 17.5174C39.6501 17.7846 39.5 18.1471 39.5 18.525V32.775C39.5 33.1529 39.6501 33.5154 39.9174 33.7826C40.1846 34.0499 40.5471 34.2 40.925 34.2C41.3029 34.2 41.6654 34.0499 41.9326 33.7826C42.1999 33.5154 42.35 33.1529 42.35 32.775V18.525Z" fill="#A0211D"/>
</svg>
