<svg width="59" height="56" viewBox="0 0 59 56" fill="none" xmlns="http://www.w3.org/2000/svg">
<ellipse cx="29.5" cy="40" rx="29.5" ry="16" fill="#FFC72C"/>
<g clip-path="url(#clip0_0_22)">
<path d="M30 19.7245L24.8887 14.6113L30 9.5L35.148 14.6113L30 19.7245ZM11.7033 39.5392V33.1225C11.7033 32.3892 11.9441 31.7591 12.4257 31.2323C12.9072 30.7056 13.5 30.4183 14.204 30.3707H19.5042C19.998 30.3707 20.4667 30.4886 20.9103 30.7245C21.354 30.9604 21.7207 31.3026 22.0103 31.7512C22.9441 33.0589 24.1071 34.0734 25.4992 34.7945C26.8913 35.5156 28.3916 35.8749 30 35.8725C31.6146 35.8725 33.124 35.5126 34.5283 34.7927C35.9339 34.074 37.0993 33.0596 38.0245 31.7493C38.3276 31.3008 38.6998 30.9586 39.141 30.7227C39.5822 30.4868 40.0338 30.3701 40.4958 30.3725H45.7942C46.5043 30.4189 47.105 30.7056 47.5963 31.2323C48.0877 31.7591 48.3333 32.3886 48.3333 33.1207V39.5373H37.3333V35.086C36.3103 35.9196 35.1743 36.5649 33.9252 37.022C32.6761 37.4791 31.3677 37.7071 30 37.7058C28.6629 37.7058 27.3735 37.4816 26.1317 37.033C24.8911 36.5857 23.7483 35.9446 22.7033 35.1098V39.5392H11.7033ZM16.3912 27.1275C15.1445 27.1275 14.0689 26.6753 13.1645 25.7708C12.2601 24.8664 11.8078 23.7908 11.8078 22.5442C11.8078 21.2682 12.2601 20.1853 13.1645 19.2955C14.0689 18.4057 15.1445 17.9608 16.3912 17.9608C17.6672 17.9608 18.7501 18.4057 19.6398 19.2955C20.5296 20.1853 20.9745 21.2682 20.9745 22.5442C20.9745 23.7908 20.5296 24.8664 19.6398 25.7708C18.7501 26.6753 17.6672 27.1275 16.3912 27.1275ZM43.6088 27.1275C42.3622 27.1275 41.2866 26.6753 40.3822 25.7708C39.4777 24.8664 39.0255 23.7908 39.0255 22.5442C39.0255 21.2682 39.4777 20.1853 40.3822 19.2955C41.2866 18.4057 42.3622 17.9608 43.6088 17.9608C44.8848 17.9608 45.9677 18.4057 46.8575 19.2955C47.7473 20.1853 48.1922 21.2682 48.1922 22.5442C48.1922 23.7908 47.7473 24.8664 46.8575 25.7708C45.9677 26.6753 44.8848 27.1275 43.6088 27.1275Z" fill="#A0211D"/>
</g>
<defs>
<clipPath id="clip0_0_22">
<rect width="41" height="40" fill="white" transform="translate(9)"/>
</clipPath>
</defs>
</svg>
