<svg width="59" height="62" viewBox="0 0 59 62" fill="none" xmlns="http://www.w3.org/2000/svg">
<ellipse cx="29.5" cy="46" rx="29.5" ry="16" fill="#FFC72C"/>
<path d="M29.5 3.75C26.019 3.75 22.6806 5.13281 20.2192 7.59422C17.7578 10.0556 16.375 13.394 16.375 16.875C16.375 21.3375 18.6063 25.2563 22 27.6375V31.875C22 32.3723 22.1975 32.8492 22.5492 33.2008C22.9008 33.5525 23.3777 33.75 23.875 33.75H35.125C35.6223 33.75 36.0992 33.5525 36.4508 33.2008C36.8025 32.8492 37 32.3723 37 31.875V27.6375C40.3937 25.2563 42.625 21.3375 42.625 16.875C42.625 13.394 41.2422 10.0556 38.7808 7.59422C36.3194 5.13281 32.981 3.75 29.5 3.75ZM23.875 39.375C23.875 39.8723 24.0725 40.3492 24.4242 40.7008C24.7758 41.0525 25.2527 41.25 25.75 41.25H33.25C33.7473 41.25 34.2242 41.0525 34.5758 40.7008C34.9275 40.3492 35.125 39.8723 35.125 39.375V37.5H23.875V39.375Z" fill="#A0211D"/>
</svg>
