<svg width="59" height="52" viewBox="0 0 59 52" fill="none" xmlns="http://www.w3.org/2000/svg">
<ellipse cx="29.5" cy="36" rx="29.5" ry="16" fill="#FFC72C"/>
<path d="M27.3333 10H32.3333L37.8167 4.5C37.9716 4.34379 38.1559 4.2198 38.359 4.13518C38.5621 4.05057 38.78 4.007 39 4.007C39.22 4.007 39.4379 4.05057 39.641 4.13518C39.8441 4.2198 40.0284 4.34379 40.1833 4.5L44.4833 8.81667C44.7938 9.12894 44.968 9.55136 44.968 9.99167C44.968 10.432 44.7938 10.8544 44.4833 11.1667L40.6667 15H27.3333V18.3333C27.3333 18.7754 27.1577 19.1993 26.8452 19.5118C26.5326 19.8244 26.1087 20 25.6667 20C25.2246 20 24.8007 19.8244 24.4882 19.5118C24.1756 19.1993 24 18.7754 24 18.3333V13.3333C24 12.4493 24.3512 11.6014 24.9763 10.9763C25.6014 10.3512 26.4493 10 27.3333 10ZM17.3333 18.3333V25L13.5167 28.8167C13.2062 29.1289 13.032 29.5514 13.032 29.9917C13.032 30.432 13.2062 30.8544 13.5167 31.1667L17.8167 35.4833C17.9716 35.6395 18.1559 35.7635 18.359 35.8482C18.5621 35.9328 18.78 35.9763 19 35.9763C19.22 35.9763 19.4379 35.9328 19.641 35.8482C19.8441 35.7635 20.0284 35.6395 20.1833 35.4833L27.3333 28.3333H34C34.442 28.3333 34.8659 28.1577 35.1785 27.8452C35.4911 27.5326 35.6667 27.1087 35.6667 26.6667V25H37.3333C37.7754 25 38.1993 24.8244 38.5118 24.5118C38.8244 24.1993 39 23.7754 39 23.3333V21.6667H40.6667C41.1087 21.6667 41.5326 21.4911 41.8452 21.1785C42.1577 20.866 42.3333 20.442 42.3333 20V18.3333H30.6667V20C30.6667 20.8841 30.3155 21.7319 29.6904 22.357C29.0652 22.9821 28.2174 23.3333 27.3333 23.3333H24C23.1159 23.3333 22.2681 22.9821 21.643 22.357C21.0179 21.7319 20.6667 20.8841 20.6667 20V15L17.3333 18.3333Z" fill="#B31B1B"/>
</svg>
