<svg width="70" height="88" viewBox="0 0 70 88" fill="none" xmlns="http://www.w3.org/2000/svg">
<path d="M27.8616 60.2564C27.0173 60.4747 26.384 60.6929 25.7508 61.1294C24.9065 59.82 24.2733 58.2923 23.429 57.201C21.9515 55.0186 20.2629 53.0544 18.7854 50.872C16.4635 47.5984 14.5639 44.3247 13.7196 40.1781C11.8199 29.9207 17.3078 19.8816 26.8062 15.9532C39.2596 10.7154 53.6127 19.4451 55.5124 33.1944C56.3567 39.5234 54.457 44.7612 51.0798 49.7808C49.6022 51.9632 47.7026 54.1456 46.2251 56.5463C45.1697 58.074 44.5365 59.6017 43.4811 61.1294C43.059 61.7841 42.6368 62.4389 42.0036 62.6571C37.1489 64.6213 32.2942 66.3672 27.4394 68.1132C26.8062 68.3314 26.3841 68.1132 26.173 67.6767C25.9619 67.0219 25.9619 66.3672 26.5952 66.149C27.0173 65.9307 27.4394 65.7125 27.8616 65.7125C32.083 64.1848 36.3045 62.6571 40.526 60.9112C40.9482 60.6929 41.3703 60.2564 41.5814 59.82C43.27 56.5463 45.3808 53.9274 47.4915 50.872C49.6023 48.0349 51.5019 45.4159 52.3462 41.9241C54.457 34.9403 52.9795 28.8295 48.3358 23.5917C43.059 17.4809 36.3046 15.5167 28.7059 17.9174C21.1072 20.3181 16.8857 25.7741 15.4082 33.8491C14.3528 39.5234 16.2524 44.3247 19.4186 48.6896C21.3182 51.3085 23.2179 53.9274 25.1176 56.5463C26.3841 57.4193 27.0173 58.7287 27.8616 60.2564Z" fill="#FEC536"/>
<path d="M26.8063 81.8624C26.5952 81.6442 26.1731 81.4259 26.1731 80.9894C26.1731 80.5529 26.3842 80.1165 26.5953 79.68C26.5953 79.4617 27.0174 79.4617 27.2285 79.4617C31.8721 77.7158 36.7269 75.9699 41.3705 74.2239C42.4259 73.7874 42.848 74.0057 43.0591 74.6604C43.2701 75.3151 42.848 75.9699 42.0037 76.4063C37.149 78.1523 32.5054 79.8982 27.6506 81.8624C27.4396 81.6442 27.2284 81.6442 26.8063 81.8624Z" fill="#FEC536"/>
<path d="M26.8063 74.6607C26.5952 74.4425 26.1731 74.2242 26.1731 73.7878C26.1731 73.3513 26.3842 72.9148 26.5953 72.4783C26.5953 72.2601 27.0174 72.2601 27.2285 72.2601C31.8721 70.5141 36.7269 68.7682 41.3705 67.0223C42.4259 66.5858 42.848 66.804 43.0591 67.4587C43.2701 68.1135 43.0591 68.7682 42.0037 69.2047C37.149 70.9506 32.5054 72.9148 27.6506 74.6607C27.4396 74.6607 27.2284 74.6607 26.8063 74.6607Z" fill="#FEC536"/>
<path d="M42.0035 80.7712C40.526 86.0091 32.2941 89.0645 27.2283 86.2273C32.083 84.4814 36.9377 82.5172 42.0035 80.7712Z" fill="#FEC536"/>
<path d="M35.6715 4.38655C35.6715 5.25952 35.6715 6.13249 35.6715 7.00546C35.6715 7.66019 35.2494 8.09668 34.6162 8.09668C33.9829 8.09668 33.5608 7.66019 33.5608 7.00546C33.5608 5.25952 33.5608 3.51358 33.5608 1.5494C33.5608 0.894676 33.9829 0.458191 34.6162 0.458191C35.2494 0.458191 35.6715 0.894676 35.6715 1.5494C35.6715 2.42237 35.6715 3.51358 35.6715 4.38655Z" fill="#FEC536"/>
<path d="M3.79932 34.9406C4.64362 34.9406 5.48794 34.9406 6.33224 34.9406C7.17654 34.9406 7.5987 35.3771 7.5987 36.0318C7.5987 36.6866 7.17654 37.123 6.33224 37.123C4.64364 37.123 2.95506 37.123 1.26646 37.123C0.422162 37.123 0 36.6866 0 36.0318C0 35.3771 0.422162 34.9406 1.26646 34.9406C2.11076 34.9406 2.95502 34.9406 3.79932 34.9406Z" fill="#FEC536"/>
<path d="M65.433 37.3412C64.5887 37.3412 63.7444 37.3412 62.9001 37.3412C62.2669 37.3412 61.8447 36.9047 61.8447 36.25C61.8447 35.5952 62.2669 35.1588 62.9001 35.1588C64.5887 35.1588 66.4884 35.1588 68.177 35.1588C68.8102 35.1588 69.2323 35.5952 69.2323 36.25C69.2323 36.9047 68.8102 37.3412 68.177 37.3412C67.1216 37.3412 66.2773 37.3412 65.433 37.3412Z" fill="#FEC536"/>
<path d="M10.5537 10.0609C10.9758 10.2791 11.1869 10.4973 11.398 10.7156C12.6644 12.025 13.7198 13.1162 14.9863 14.4257C15.6195 15.0804 15.6195 15.5169 14.9863 16.1716C14.5641 16.6081 13.9309 16.6081 13.2976 16.1716C12.0312 14.8622 10.7648 13.771 9.7094 12.4615C9.49833 12.2433 9.28724 11.5885 9.49832 11.1521C9.70939 10.4973 10.3426 10.2791 10.5537 10.0609Z" fill="#FEC536"/>
<path d="M54.6683 55.6738C55.0904 55.892 55.3015 56.1103 55.5126 56.3285C56.779 57.4197 57.8344 58.7292 59.1009 59.8204C59.7341 60.4751 59.7341 61.1298 59.312 61.5663C58.8898 62.0028 58.2565 62.0028 57.6233 61.3481C56.3569 60.0386 55.3015 58.9474 54.0351 57.638C53.824 57.4197 53.6129 56.765 53.824 56.3285C53.824 56.1103 54.2461 55.892 54.6683 55.6738Z" fill="#FEC536"/>
<path d="M59.734 11.3703C59.5229 11.8068 59.3119 12.025 59.1008 12.2432C57.8344 13.5527 56.779 14.6439 55.5125 15.9534C55.0904 16.3898 54.4572 16.6081 53.8239 15.9534C53.4018 15.5169 53.4018 14.8622 53.8239 14.2074C55.0904 12.898 56.1457 11.5885 57.4122 10.4973C57.6232 10.2791 58.2565 10.0608 58.6786 10.2791C59.1008 10.4973 59.3119 11.152 59.734 11.3703Z" fill="#FEC536"/>
<path d="M10.5533 62.0025C10.3423 61.7842 9.92012 61.566 9.70905 61.1295C9.49797 60.9113 9.70905 60.2565 9.70905 60.0383C10.9755 58.7288 12.2419 57.2011 13.7195 55.8917C14.1416 55.4552 14.7748 55.4552 15.1969 55.8917C15.6191 56.3282 15.6191 56.9829 15.1969 57.4194C13.9305 58.7288 12.6641 60.0383 11.3976 61.3478C11.1865 61.7842 10.9755 62.0025 10.5533 62.0025Z" fill="#FEC536"/>
</svg>
