<svg width="74" height="76" viewBox="0 0 74 76" fill="none" xmlns="http://www.w3.org/2000/svg">
<path d="M70.9046 2.2351C69.808 2.2351 68.5287 2.2351 67.4321 2.2351C59.939 2.61303 52.8113 4.31373 46.0492 7.71513C37.825 11.6834 30.8801 17.3524 25.3973 24.9111C21.5593 30.0132 18.8179 35.6822 16.8075 41.7291C16.6248 42.107 16.8075 42.296 16.9903 42.485C18.6351 44.1857 20.28 45.8864 21.9248 47.5871C22.1076 47.776 22.2904 48.154 22.2904 48.5319C22.2904 48.9098 22.1076 49.2878 21.7421 49.4767C21.3766 49.6657 20.8283 49.6657 20.6455 49.2878C19.7317 48.3429 19.0007 47.5871 18.0869 46.6422C16.9903 45.5084 16.0765 44.3746 14.9799 43.4298C14.6144 43.0519 14.4317 42.485 14.6144 41.9181C16.9903 34.5484 20.4628 27.7456 25.3973 21.6986C30.3318 15.4628 36.3629 10.5496 43.125 6.95926C49.3389 3.55787 56.101 1.47923 63.0459 0.534402C65.9701 0.156469 68.8942 -0.0324976 71.8184 0.156469C72.7322 0.156469 72.915 0.534402 73.0977 1.47923C73.4632 13.7621 70.5391 25.1 64.1425 35.6822C57.7458 46.0753 48.9734 53.823 38.0077 58.7361C36.3629 59.492 34.5353 60.0589 32.7077 60.8147C32.1594 61.0037 31.7939 61.0037 31.4284 60.4368C29.6008 58.5471 27.5904 56.4685 25.7628 54.5788C25.3973 54.2009 25.2145 53.634 25.58 53.0671C25.9456 52.5002 26.6766 52.5002 27.2249 53.0671C28.8697 54.7678 30.5146 56.4685 32.1594 58.1692C32.5249 58.5471 32.7077 58.5471 33.0732 58.3582C41.1147 55.5237 48.2423 50.9885 54.2734 44.9415C61.4011 37.7608 66.1528 29.2573 68.8942 19.62C70.3563 14.329 71.0873 8.84893 71.0873 3.17993C71.0873 2.802 70.9046 2.61303 70.9046 2.2351Z" fill="#FEC536"/>
<path d="M60.8529 24.3441C60.8529 30.769 55.9184 35.871 49.7045 35.871C43.4907 35.871 38.5562 30.769 38.5562 24.3441C38.5562 18.1082 43.4907 12.8171 49.5218 12.8171C55.9184 12.8171 60.8529 17.9192 60.8529 24.3441ZM58.6598 24.5331C58.6598 19.242 54.6391 15.0847 49.5218 15.0847C44.4045 15.0847 40.3838 19.242 40.3838 24.5331C40.3838 29.8241 44.4045 33.9814 49.5218 33.9814C54.6391 33.7924 58.6598 29.6352 58.6598 24.5331Z" fill="#FEC536"/>
<path d="M32.8907 72.7194C34.17 71.9636 35.4493 71.0187 36.5459 70.0739C40.2011 66.6725 42.2115 62.5153 43.1253 57.6021C43.308 56.8463 43.6736 56.4683 44.2218 56.4683C44.9529 56.4683 45.3184 57.0352 45.3184 57.7911C45.1356 58.7359 44.9529 59.8697 44.5874 60.8146C42.577 67.2394 38.9218 71.9636 33.2562 75.176C31.9769 75.9319 31.4286 75.5539 31.2459 74.2312C30.5148 70.2629 29.7838 66.1056 29.0527 62.1373C29.0527 61.7594 29.0527 61.3814 29.0527 61.1925C29.2355 60.8145 29.601 60.6256 30.1493 60.6256C30.5148 60.6256 30.8803 61.0035 31.0631 61.3815C31.2459 62.5153 31.4286 63.649 31.7941 64.9718C31.9769 67.6173 32.5252 70.0739 32.8907 72.7194Z" fill="#FEC536"/>
<path d="M2.73514 41.5401C3.83171 41.7291 4.92827 41.918 5.84207 42.107C8.40071 42.6739 10.9594 43.0518 13.3352 43.6187C13.518 43.6187 13.518 43.6187 13.7008 43.6187C14.249 43.8077 14.6146 44.3746 14.4318 44.9415C14.249 45.5084 13.8835 45.8863 13.1525 45.6974C11.6904 45.3194 10.0456 45.1305 8.58347 44.7525C6.20759 44.1856 3.83171 43.8077 1.27306 43.2408C1.0903 43.2408 1.0903 43.2408 0.907541 43.2408C-0.00626036 43.0518 -0.189021 42.4849 0.1765 41.5401C1.27306 39.4615 2.55238 37.3829 4.19723 35.6822C7.66967 31.9028 11.8732 29.8242 16.6249 28.6904C16.8077 28.6904 16.9904 28.6904 16.9904 28.5014C17.5387 28.3125 18.087 28.6904 18.2698 29.2573C18.4525 29.8242 18.087 30.3911 17.356 30.5801C16.2594 30.958 14.9801 31.147 13.8835 31.5249C9.13175 33.2256 5.47655 36.2491 2.73514 40.5953C2.9179 41.1622 2.9179 41.3511 2.73514 41.5401Z" fill="#FEC536"/>
<path d="M15.7109 58.3582C15.8937 58.1692 16.0765 57.7913 16.2592 57.6023C19.7317 54.012 23.0213 50.6106 26.4938 47.0202C27.7731 45.6974 28.8697 44.5636 30.149 43.2409C30.6973 42.674 31.2456 42.674 31.7938 43.0519C32.1594 43.4298 32.1594 44.1857 31.6111 44.7526C27.5904 48.9099 23.5696 53.2561 19.3661 57.4134C18.8179 57.9803 18.2696 58.7361 17.5385 59.303C17.173 59.681 16.8075 59.681 16.442 59.492C15.8937 59.303 15.7109 58.9251 15.7109 58.3582Z" fill="#FEC536"/>
<path d="M10.9593 63.2713C11.3248 63.4603 11.6903 63.6492 11.8731 64.0272C12.0559 64.4051 11.8731 64.783 11.6903 65.161C11.5076 65.3499 11.1421 65.7279 10.9593 66.1058C8.76617 68.3734 6.57305 70.83 4.19716 73.0976C3.83164 73.2865 3.64888 73.4755 3.28336 73.4755C2.91784 73.4755 2.55232 73.2865 2.36956 72.9086C2.1868 72.3417 2.1868 71.9638 2.55232 71.5858C4.0144 70.0741 5.47648 68.5624 6.93857 67.0506C8.03513 65.9168 8.94893 64.972 10.0455 63.8382C10.411 63.6492 10.5938 63.4603 10.9593 63.2713Z" fill="#FEC536"/>
<path d="M9.31437 55.5236C10.2282 55.5236 10.7765 56.4685 10.4109 57.0354C10.2282 57.2243 10.2282 57.4133 10.0454 57.6023C7.66953 60.0588 5.29365 62.5154 2.91776 64.9719L2.735 65.1609C2.18672 65.5388 1.63844 65.7278 1.27292 65.1609C0.907399 64.783 0.907399 64.0271 1.27292 63.6492C3.10052 61.7595 4.92813 59.8698 6.75573 57.9802C7.48677 57.2243 8.03505 56.6574 8.76609 56.0905C8.94885 55.7126 9.31437 55.5236 9.31437 55.5236Z" fill="#FEC536"/>
<path d="M19.5491 66.1059C19.5491 66.2949 19.3663 66.4838 19.1835 66.8617C16.6249 69.5073 14.249 71.9638 11.6904 74.6094C11.1421 75.1763 10.5938 75.1763 10.0455 74.6094C9.68 74.2314 9.68 73.4756 10.2283 73.0976C12.7869 70.4521 15.1628 67.9955 17.7215 65.35C18.087 64.9721 18.4525 64.7831 19.0008 64.9721C19.3663 65.161 19.5491 65.35 19.5491 66.1059Z" fill="#FEC536"/>
</svg>
